<?xml version="1.0" encoding="UTF-8" standalone="no"?>
<svg height="100%" viewBox="64 64 896 896" width="100%" xmlns="http://www.w3.org/2000/svg" xmlns:xlink="http://www.w3.org/1999/xlink">
  <path d="M252,832C227,832 203.083,826.917 180.25,816.75C157.417,806.583 137.417,792.917 120.25,775.75C103.083,758.583 89.4167,738.583 79.25,715.75C69.0833,692.917 64,669 64,644L64,252C64,227 69.0833,203.083 79.25,180.25C89.4167,157.417 103.083,137.417 120.25,120.25C137.417,103.083 157.417,89.4167 180.25,79.25C203.083,69.0834 227,64.0001 252,64L644,64C669,64.0001 692.917,69.0834 715.75,79.25C738.583,89.4167 758.583,103.083 775.75,120.25C792.917,137.417 806.583,157.417 816.75,180.25C826.917,203.083 832,227 832,252L832,644C832,669 826.917,692.917 816.75,715.75C806.583,738.583 792.917,758.583 775.75,775.75C758.583,792.917 738.583,806.583 715.75,816.75C692.917,826.917 669,832 644,832ZM448,456C465,456 481.333,459.25 497,465.75C512.667,472.25 526.5,481.5 538.5,493.5L750.5,705C756.167,695.333 760.5,684.917 763.5,673.75C766.5,662.583 768,651.333 768,640L768,253.5C768,236.833 764.583,220.917 757.75,205.75C750.917,190.583 741.75,177.25 730.25,165.75C718.75,154.25 705.417,145.083 690.25,138.25C675.083,131.417 659.167,128 642.5,128L253.5,128C236.833,128 220.917,131.417 205.75,138.25C190.583,145.083 177.25,154.25 165.75,165.75C154.25,177.25 145.083,190.583 138.25,205.75C131.417,220.917 128,236.833 128,253.5L128,640C128,651.333 129.5,662.583 132.5,673.75C135.5,684.917 139.833,695.333 145.5,705L357.5,493.5C369.5,481.5 383.333,472.25 399,465.75C414.667,459.25 431,456 448,456ZM544,288C544,279 545.667,270.667 549,263C552.333,255.333 556.917,248.583 562.75,242.75C568.583,236.917 575.333,232.333 583,229C590.667,225.667 599,224 608,224C616.667,224 624.917,225.667 632.75,229C640.583,232.333 647.417,236.917 653.25,242.75C659.083,248.583 663.667,255.417 667,263.25C670.333,271.083 672,279.333 672,288C672,297 670.333,305.333 667,313C663.667,320.667 659.083,327.417 653.25,333.25C647.417,339.083 640.667,343.667 633,347C625.333,350.333 617,352 608,352C599,352 590.583,350.333 582.75,347C574.917,343.667 568.167,339.167 562.5,333.5C556.833,327.833 552.333,321.083 549,313.25C545.667,305.417 544,297 544,288ZM384,960C356.667,960 330.5,954.5 305.5,943.5C280.5,932.5 259,916.667 241,896L675.5,896C705.833,896 734.417,890 761.25,878C788.083,866 811.5,849.75 831.5,829.25C851.5,808.75 867.25,785 878.75,758C890.25,731 896,702.333 896,672L896,241C916.667,259 932.5,280.5 943.5,305.5C954.5,330.5 960,356.667 960,384L960,672C960,711.667 952.417,749 937.25,784C922.083,819 901.5,849.5 875.5,875.5C849.5,901.5 819,922.083 784,937.25C749,952.417 711.667,960 672,960ZM640,768C651.333,768 662.583,766.5 673.75,763.5C684.917,760.5 695.333,756.167 705,750.5L493.5,538.5C480.833,525.833 465.667,519.5 448,519.5C430.333,519.5 415.167,525.833 402.5,538.5L191,750.5C200.667,756.167 211.083,760.5 222.25,763.5C233.417,766.5 244.667,768 256,768Z" fill="#FFFFFF" fill-opacity="1">
  </path>
</svg>
